PathFileType	4	(X/Y/Z)	/Users/itak/Documents/Research/Walk-IL/dataset/trc/00029_00004.trc
DataRate	CameraRate	NumFrames	NumMarkers	Units	OrigDataRate	OrigDataStartFrame	OrigNumFrames
100.000000	100.000000	4	53	mm	100.000000	191	767
Frame#	Time	RPSI			LPSI			L3			STRN			T10			C7			CLAV			RBAK			LBAK			LSHO			LUPA			LAEL			LAOL			LWTS			LWPS			LFRA			LIFD			LHPS			LHTS			RSHO			RUPA			RAEL			RAOL			RWTS			RWPS			RFRA			RIFD			RHTS			RHPS			RBHD			LFHD			RFHD			LBHD			LHIP			RHIP			RASI			LASI			LKNE			LTHI			LANK			LTIP			LTOE			LMT1			LMT5			LHEE			RKNE			RTHI			RANK			RTIP			RTOE			RMT1			RMT5			RHEE			
		X1	Y1	Z1	X2	Y2	Z2	X3	Y3	Z3	X4	Y4	Z4	X5	Y5	Z5	X6	Y6	Z6	X7	Y7	Z7	X8	Y8	Z8	X9	Y9	Z9	X10	Y10	Z10	X11	Y11	Z11	X12	Y12	Z12	X13	Y13	Z13	X14	Y14	Z14	X15	Y15	Z15	X16	Y16	Z16	X17	Y17	Z17	X18	Y18	Z18	X19	Y19	Z19	X20	Y20	Z20	X21	Y21	Z21	X22	Y22	Z22	X23	Y23	Z23	X24	Y24	Z24	X25	Y25	Z25	X26	Y26	Z26	X27	Y27	Z27	X28	Y28	Z28	X29	Y29	Z29	X30	Y30	Z30	X31	Y31	Z31	X32	Y32	Z32	X33	Y33	Z33	X34	Y34	Z34	X35	Y35	Z35	X36	Y36	Z36	X37	Y37	Z37	X38	Y38	Z38	X39	Y39	Z39	X40	Y40	Z40	X41	Y41	Z41	X42	Y42	Z42	X43	Y43	Z43	X44	Y44	Z44	X45	Y45	Z45	X46	Y46	Z46	X47	Y47	Z47	X48	Y48	Z48	X49	Y49	Z49	X50	Y50	Z50	X51	Y51	Z51	X52	Y52	Z52	X53	Y53	Z53	

192	1.91	3.078184366226196	1040.822631835938	876.415283203125	-26.00014686584473	1046.067993164062	1037.021484375	-9.259246826171875	1104.946166992188	960.9402465820312	-237.7023620605469	1278.889892578125	875.1544799804688	5.500867366790771	1248.8564453125	948.2626953125	-55.51738357543945	1510.890258789062	908.2224731445312	-201.7350311279297	1406.457641601562	871.9510498046875	22.67385482788086	1369.542846679688	865.0067749023438	-63.98876953125	1485.590698242188	1011.037414550781	-182.9466857910156	1491.061401367188	1051.14013671875	-163.6354827880859	1385.501586914062	1154.752685546875	-145.1276702880859	1179.873779296875	1222.892822265625	-62.51752471923828	1167.636840820312	1158.60009765625	-176.4768524169922	909.9757690429688	1181.498901367188	-121.7110061645508	913.6907958984375	1250.447143554688	-145.8346252441406	1064.05859375	1244.388427734375	-169.9315338134766	722.0354614257812	1181.429443359375	-140.4835052490234	819.6763916015625	1250.405639648438	-189.0980529785156	815.2554321289062	1199.1083984375	-78.44335174560547	1469.225708007812	723.420166015625	-40.66876220703125	1394.197875976562	669.121826171875	19.76042366027832	1130.602905273438	682.052734375	-10.76269340515137	1109.905517578125	776.2942504882812	-111.6674423217773	871.08642578125	687.5272216796875	-28.15678405761719	851.1043701171875	653.3489379882812	15.29035568237305	1052.306274414062	670.5040283203125	-139.2047729492188	688.6287231445312	715.0921630859375	-140.5577239990234	761.0432739257812	673.54638671875	-69.805908203125	750.1972045898438	650.5805053710938	-162.3961486816406	1685.104736328125	936.72119140625	-200.8508453369141	1683.1435546875	721.3330078125	-270.2684326171875	1693.678955078125	790.8246459960938	-66.15342712402344	1667.062866210938	831.0155639648438	-135.1437072753906	943.0318603515625	1136.751831054688	-95.32778167724609	921.3883666992188	767.035888671875	-206.8826293945312	954.2391357421875	819.938720703125	-240.0145568847656	983.8511962890625	1050.331787109375	-203.9598236083984	487.9807434082031	1148.60205078125	-175.7753295898438	637.7166137695312	1161.646606445312	234.336669921875	238.0952911376953	1258.302001953125	20.80297660827637	368.1849365234375	1222.330810546875	118.1296844482422	58.03158950805664	1198.52490234375	150.0007781982422	105.0484161376953	1180.39501953125	164.8147888183594	136.9110107421875	1280.860717773438	273.1131896972656	291.8169860839844	1205.638061523438	-245.1199035644531	513.7905883789062	799.6436157226562	-150.0855560302734	766.2954711914062	758.8370971679688	-189.8287353515625	42.58307647705078	954.1822509765625	-243.982421875	383.4420166015625	827.9141845703125	-413.1001586914062	44.70223617553711	879.381103515625	-372.0347595214844	50.58578491210938	934.8272094726562	-308.1449584960938	44.26491928100586	862.919189453125	-164.5347900390625	46.49200820922852	1019.827392578125	
193	1.92	-4.524322509765625	1042.216796875	872.7411499023438	-36.09489822387695	1047.408447265625	1032.93310546875	-18.13445472717285	1106.222290039062	957.0474853515625	-244.7294769287109	1280.825439453125	869.0250854492188	-2.709798812866211	1250.064453125	944.604248046875	-62.38493728637695	1512.332275390625	903.9031372070312	-208.4853363037109	1408.292114257812	866.167236328125	15.82071113586426	1370.723510742188	861.550048828125	-71.95661163330078	1487.02783203125	1006.638732910156	-191.2830657958984	1492.91552734375	1045.59912109375	-173.222412109375	1387.107543945312	1149.250854492188	-155.8983001708984	1181.263549804688	1217.09521484375	-72.76712036132812	1169.048583984375	1153.543212890625	-186.1406860351562	911.1259765625	1175.868530273438	-132.0459289550781	915.1704711914062	1245.333740234375	-156.5903778076172	1065.461669921875	1238.687622070312	-179.0254516601562	723.198974609375	1176.271484375	-150.5229034423828	821.0980224609375	1245.353759765625	-198.5929412841797	816.326904296875	1193.601928710938	-83.41466522216797	1470.67724609375	718.8868408203125	-45.38418197631836	1395.470092773438	664.9541015625	13.26772403717041	1131.382934570312	678.3231201171875	-18.49716758728027	1110.775756835938	772.2178955078125	-121.2543411254883	873.4202270507812	681.6141357421875	-37.42666244506836	852.404052734375	648.6656494140625	8.231690406799316	1053.07421875	666.6034545898438	-152.2968444824219	691.4675903320312	707.7310791015625	-151.3546905517578	763.8777465820312	666.8424072265625	-80.36688995361328	752.1127319335938	644.9896850585938	-168.9440765380859	1687.026245117188	931.0892944335938	-205.8093872070312	1684.88623046875	715.4176025390625	-275.7003784179688	1695.629028320312	784.382080078125	-71.92716217041016	1668.69189453125	826.089599609375	-147.5001220703125	944.4259643554688	1130.913330078125	-101.0327987670898	922.332763671875	762.3240966796875	-213.4722900390625	955.6207275390625	813.2662963867188	-250.4638214111328	985.5965576171875	1042.858642578125	-224.2595367431641	489.669189453125	1138.609130859375	-193.5471038818359	638.9788208007812	1153.566040039062	210.8230133056641	239.8086700439453	1258.187377929688	-1.544882655143738	369.9083862304688	1217.355712890625	93.49127197265625	60.01973724365234	1198.993286132812	126.321418762207	106.6112976074219	1180.637329101562	139.3068695068359	139.9838104248047	1280.845947265625	251.4152374267578	292.2248229980469	1205.487426757812	-246.9437103271484	512.7614135742188	796.7573852539062	-154.4819641113281	766.1953735351562	754.5557250976562	-189.8442840576172	42.61304473876953	954.2687377929688	-245.1652526855469	382.6348571777344	825.8897094726562	-413.1238098144531	44.6877555847168	879.2627563476562	-371.9671630859375	50.71376800537109	934.6768188476562	-308.0677795410156	44.19385528564453	862.7543334960938	-164.6198883056641	46.81362915039062	1019.966369628906	
194	1.93	-11.97543525695801	1043.637573242188	869.1173095703125	-46.09020614624023	1048.815795898438	1028.841186523438	-26.88665390014648	1107.556518554688	953.1802978515625	-251.6587677001953	1282.806518554688	862.9149780273438	-10.82984352111816	1251.31884765625	941.0032958984375	-69.16692352294922	1513.826293945312	899.6696166992188	-215.0979614257812	1410.168334960938	860.4615478515625	9.06787109375	1371.970581054688	858.1822509765625	-79.83677673339844	1488.5029296875	1002.304077148438	-199.5128021240234	1494.8330078125	1040.11669921875	-182.6765747070312	1388.780883789062	1143.78857421875	-166.5163726806641	1182.705810546875	1211.287353515625	-82.92566680908203	1170.486206054688	1148.41455078125	-195.8804168701172	912.36669921875	1170.20751953125	-142.3573303222656	916.6859130859375	1240.1201171875	-167.2447204589844	1066.91845703125	1232.951171875	-188.3762054443359	724.4603271484375	1171.063598632812	-160.6256713867188	822.5758056640625	1240.215576171875	-208.2200012207031	817.51904296875	1188.079467773438	-88.26759338378906	1472.185668945312	714.4661254882812	-49.97039031982422	1396.816162109375	660.8999633789062	6.962509632110596	1132.270263671875	674.7064208984375	-26.01108741760254	1111.76025390625	768.2385864257812	-130.5274963378906	875.8689575195312	675.8214721679688	-46.46039199829102	853.8367919921875	644.0288696289062	1.373266577720642	1053.950439453125	662.7999267578125	-164.4729461669922	694.3221435546875	700.7662963867188	-161.8205871582031	766.8272094726562	660.2570190429688	-90.65891265869141	754.1605224609375	639.4389038085938	-175.3915863037109	1688.99609375	925.5656127929688	-210.6557464599609	1686.68408203125	709.617919921875	-281.0193481445312	1697.620849609375	778.0527954101562	-77.58771514892578	1670.38818359375	821.2734985351562	-159.7845764160156	945.9070434570312	1124.983032226562	-106.4732360839844	923.29931640625	757.6465454101562	-219.8220062255859	957.03173828125	806.530517578125	-260.7598571777344	987.3890380859375	1035.249267578125	-244.0675354003906	491.6139526367188	1128.086669921875	-210.9659576416016	640.4024047851562	1145.15234375	186.4553985595703	240.0360412597656	1257.795654296875	-24.10321235656738	371.154541015625	1211.90087890625	67.34408569335938	61.19757461547852	1198.38232421875	101.4007797241211	107.2077713012695	1180.034301757812	112.5505447387695	141.7682037353516	1280.030883789062	229.0417785644531	291.1259460449219	1205.360229492188	-248.4743347167969	511.8216857910156	794.1101684570312	-158.5937347412109	766.14111328125	750.411865234375	-189.8568420410156	42.6730842590332	954.3770141601562	-246.0825805664062	381.9348449707031	824.0765991210938	-413.140380859375	44.66646194458008	879.1372680664062	-371.9010925292969	50.85328674316406	934.5240478515625	-308.0005187988281	44.12590026855469	862.5956420898438	-164.7301788330078	47.14300537109375	1020.143310546875	
195	1.94	-19.29932975769043	1045.077880859375	865.5470581054688	-55.98351287841797	1050.27001953125	1024.754150390625	-35.5206413269043	1108.936889648438	949.3433227539062	-258.5127258300781	1284.8203125	856.7974243164062	-18.87436866760254	1252.610473632812	937.4577026367188	-75.87062072753906	1515.359497070312	895.52001953125	-221.6125793457031	1412.0810546875	854.8182373046875	2.396735906600952	1373.270751953125	854.9000244140625	-87.64803314208984	1490.005493164062	998.0278930664062	-207.6585693359375	1496.797485351562	1034.679809570312	-192.0294189453125	1390.51318359375	1138.35791015625	-177.006103515625	1184.198364257812	1205.481689453125	-92.98863220214844	1171.958740234375	1143.242431640625	-205.6824951171875	913.6973266601562	1164.505126953125	-152.6512145996094	918.2374877929688	1234.807495117188	-177.8086395263672	1068.427368164062	1227.190063476562	-197.9588317871094	725.81689453125	1165.7744140625	-170.7829742431641	824.1136474609375	1234.9775390625	-217.9709320068359	818.8325805664062	1182.505981445312	-93.01021575927734	1473.750732421875	710.154296875	-54.43132781982422	1398.237548828125	656.95458984375	0.8467496633529663	1133.264526367188	671.190673828125	-33.29654693603516	1112.860717773438	764.3474731445312	-139.4898223876953	878.4220581054688	670.1586303710938	-55.25748443603516	855.3972778320312	639.438720703125	-5.291227340698242	1054.932006835938	659.0840454101562	-175.8323364257812	697.2008056640625	694.1817016601562	-171.9491882324219	769.875	653.8217163085938	-100.676872253418	756.32763671875	633.9483642578125	-181.7504119873047	1691.000366210938	920.1463012695312	-215.4018402099609	1688.5234375	703.9235229492188	-286.2343444824219	1699.638427734375	771.8290405273438	-83.15342712402344	1672.1376953125	816.562744140625	-171.9762878417969	947.451171875	1118.973876953125	-111.6664733886719	924.2796630859375	753.0186767578125	-225.9642791748047	958.4509887695312	799.7293090820312	-270.8901977539062	989.2264404296875	1027.51123046875	-263.3420715332031	493.7776489257812	1117.035400390625	-228.0438995361328	641.9625244140625	1136.403564453125	161.2782897949219	238.7990570068359	1257.065307617188	-46.82757186889648	371.8979797363281	1205.94677734375	39.80905914306641	61.65095520019531	1196.517456054688	75.30564117431641	106.9100189208984	1178.483642578125	84.63440704345703	142.3156890869141	1278.323364257812	206.0245666503906	288.5536804199219	1205.210693359375	-249.7392120361328	510.9722290039062	791.6856689453125	-162.4756774902344	766.1355590820312	746.3947143554688	-189.8692932128906	42.76784133911133	954.5009765625	-246.7619018554688	381.34716796875	822.461669921875	-413.1553955078125	44.63943862915039	879.0015869140625	-371.8401489257812	51.007568359375	934.363037109375	-307.943115234375	44.06253814697266	862.4420166015625	-164.87646484375	47.4788932800293	1020.355224609375	
